<svg width="780" height="482" viewBox="0 0 780 482" fill="none" xmlns="http://www.w3.org/2000/svg">
<path d="M53.6899 358.358C57.232 355.717 57.9624 350.704 55.3214 347.162C52.6803 343.62 47.668 342.89 44.1259 345.531C40.5839 348.172 39.8534 353.184 42.4945 356.726C45.1355 360.268 50.1479 360.999 53.6899 358.358Z" fill="#FFEFB7"/>
<path d="M194.689 477.111C198.232 474.47 198.962 469.457 196.321 465.915C193.68 462.373 188.668 461.643 185.125 464.284C181.583 466.925 180.853 471.937 183.494 475.479C186.135 479.021 191.147 479.752 194.689 477.111Z" fill="#E0E8FF"/>
<path d="M552.441 58.6375C551.881 62.1834 554.302 65.5117 557.848 66.0715C561.394 66.6312 564.722 64.2105 565.282 60.6645C565.842 57.1186 563.421 53.7902 559.875 53.2305C556.329 52.6707 553.001 55.0915 552.441 58.6375Z" stroke="#FFE487" stroke-width="3"/>
<path d="M254.289 38.5195C262.037 32.7422 263.635 21.7776 257.858 14.0294C252.081 6.28117 241.116 4.68337 233.368 10.4606C225.62 16.2379 224.022 27.2025 229.799 34.9507C235.576 42.6989 246.541 44.2967 254.289 38.5195Z" stroke="#FFE487" stroke-width="5"/>
<path d="M742.3 230.646C740.793 240.193 747.311 249.154 756.858 250.661C766.404 252.168 775.365 245.651 776.872 236.104C778.379 226.557 771.862 217.596 762.315 216.089C752.768 214.582 743.807 221.1 742.3 230.646Z" fill="#FFE487" stroke="#FFE487" stroke-width="5"/>
<path d="M549.279 434.149C558.135 427.546 559.961 415.015 553.358 406.16C546.756 397.305 534.225 395.479 525.369 402.082C516.514 408.684 514.688 421.215 521.291 430.07C527.893 438.925 540.424 440.751 549.279 434.149Z" fill="#E0E8FF"/>
<path d="M2.80673 177.569C1.25664 187.388 7.96034 196.605 17.7799 198.155C27.5994 199.705 36.8163 193.001 38.3664 183.182C39.9165 173.362 33.2128 164.145 23.3933 162.595C13.5737 161.045 4.35683 167.749 2.80673 177.569Z" stroke="#E0E8FF" stroke-width="4"/>
</svg>
