<svg width="18" height="18" viewBox="0 0 18 18" fill="none" xmlns="http://www.w3.org/2000/svg">
<path d="M1.27793 12.6475L0.469336 15.3896L0.0474609 16.9014C-0.0580078 17.1826 0.0123047 17.499 0.258398 17.71C0.469336 17.9561 0.785742 18.0264 1.06699 17.9561L2.57871 17.499L5.3209 16.6904C5.74277 16.5498 6.12949 16.3389 6.48105 16.0576C6.51621 15.9873 6.58652 15.9521 6.62168 15.917L17.3092 5.22949C18.0826 4.45605 18.1881 3.26074 17.5904 2.38184C17.5201 2.27637 17.4146 2.13574 17.3092 2.03027L15.9381 0.65918C15.0592 -0.219727 13.6178 -0.219727 12.7389 0.65918L2.05137 11.3467C1.6998 11.6982 1.41855 12.1553 1.27793 12.6475ZM2.89512 13.1396C2.96543 12.9287 3.03574 12.7529 3.17637 12.6123C3.21152 12.5771 3.21152 12.542 3.24668 12.542L11.2975 4.49121L13.4771 6.6709L5.42637 14.7217C5.25059 14.8975 5.0748 15.0029 4.82871 15.0732L4.02012 15.3193L2.08652 15.8818L2.64902 13.9482L2.89512 13.1396Z" fill="#FFB802"/>
</svg>
