<svg width="49" height="40" viewBox="0 0 49 40" fill="none" xmlns="http://www.w3.org/2000/svg">
<path d="M13.9651 21.2998H39.0365C39.4008 21.2998 39.7008 21.6109 39.7008 21.9998C39.7008 22.3887 39.4008 22.6998 39.0365 22.6998H13.9651C13.6008 22.6998 13.3008 22.3887 13.3008 21.9998C13.3008 21.6109 13.6008 21.2998 13.9651 21.2998Z" fill="white"/>
<path fill-rule="evenodd" clip-rule="evenodd" d="M21.9655 1.56228C20.2483 -0.132695 17.5013 -0.185767 15.7196 1.40337L15.5502 1.56228L5.1385 11.839L4.96288 11.9111H0.957031C0.598499 11.9111 0.303173 12.1731 0.256442 12.5116L0.25 12.6057V16.3842C0.25 17.48 0.952773 18.4439 1.97374 18.8113L2.14678 18.8669L2.28974 18.9075L5.67574 33.9473C5.93092 35.0826 6.89611 35.8914 8.05852 35.9659L8.2343 35.9715H9.87024L9.91142 36.1709C10.338 38.2368 12.1924 39.75 14.3555 39.75C16.4464 39.75 18.249 38.336 18.7521 36.3756L18.7995 36.1709L18.8407 35.9715H30.1593L30.2005 36.1709C30.6271 38.2368 32.4815 39.75 34.6445 39.75C36.7355 39.75 38.538 38.336 39.0412 36.3756L39.0886 36.1709L39.1298 35.9715H40.7657C41.9465 35.9715 42.9558 35.2168 43.2807 34.1153L43.3242 33.9475L46.7103 18.9075L46.8532 18.8669C47.9084 18.5673 48.6667 17.6453 48.7436 16.5656L48.75 16.3842V12.6057C48.75 12.2547 48.4846 11.9635 48.1391 11.9174L48.043 11.9111H44.0371L43.8615 11.839L33.4499 1.56229C31.7369 -0.128359 28.9817 -0.181192 27.2036 1.40379L27.0346 1.56229L24.5 4.06395L21.9655 1.56228ZM14.3555 32.193C16.0759 32.193 17.4766 33.5754 17.4766 35.2768C17.4766 36.9783 16.0759 38.3607 14.3555 38.3607C12.635 38.3607 11.2344 36.9783 11.2344 35.2768C11.2344 33.5754 12.635 32.193 14.3555 32.193ZM37.7656 35.2768C37.7656 33.5754 36.365 32.193 34.6445 32.193C32.9241 32.193 31.5234 33.5754 31.5234 35.2768C31.5234 36.9783 32.9241 38.3607 34.6445 38.3607C36.365 38.3607 37.7656 36.9783 37.7656 35.2768ZM3.75159 18.9681H45.2484L41.9435 33.6478C41.8308 34.149 41.4008 34.5211 40.8939 34.5754L40.7657 34.5822H39.1298L39.0886 34.3828C38.662 32.3169 36.8076 30.8037 34.6445 30.8037C32.5536 30.8037 30.751 32.2177 30.2479 34.1781L30.2005 34.3828L30.1593 34.5822H18.8407L18.7995 34.3828C18.3729 32.3169 16.5185 30.8037 14.3555 30.8037C12.2645 30.8037 10.462 32.2177 9.9588 34.1781L9.91142 34.3828L9.87024 34.5822H8.2343C7.71624 34.5822 7.25502 34.2486 7.09108 33.7701L7.05643 33.6476L3.75159 18.9681ZM47.3359 16.3842V13.3003H1.66406V16.3842L1.67031 16.5064C1.73229 17.1087 2.24761 17.5789 2.87109 17.5789H46.1289L46.2521 17.5727C46.8596 17.5115 47.3359 17.0027 47.3359 16.3842ZM32.3039 2.4091L32.4476 2.54233L41.9392 11.911H32.5527L32.377 11.8389L25.4975 5.04857L28.0368 2.54233C29.1598 1.43385 30.9312 1.34859 32.154 2.28653L32.3039 2.4091ZM20.9632 2.54233L20.8195 2.4091L20.6696 2.28653C19.4469 1.34859 17.6754 1.43385 16.5524 2.54233L7.06077 11.911H30.4549L20.9632 2.54233Z" fill="white"/>
</svg>
