<svg width="195" height="36" viewBox="0 0 195 36" fill="none" xmlns="http://www.w3.org/2000/svg">
<g clip-path="url(#clip0_1561_3295)">
<path d="M18.1028 4.19041V0C13.3017 0 8.69713 1.89642 5.30219 5.27208C1.90725 8.64773 0 13.2261 0 18C0 22.7739 1.90725 27.3523 5.30219 30.7279C8.69713 34.1036 13.3017 36 18.1028 36V31.8096C14.7809 31.8109 11.5681 30.6308 9.0449 28.4824C6.5217 26.334 4.85454 23.3591 4.34468 20.0952H14.0333V15.9048H4.37364C4.88274 12.6458 6.54569 9.67474 9.06286 7.52696C11.58 5.37919 14.7859 4.19594 18.1028 4.19041Z" fill="white"/>
<path d="M30.4851 11.7144H35.0905C33.8 8.27113 31.4805 5.30305 28.4438 3.20895C25.407 1.11485 21.7984 -0.00494958 18.1028 1.64461e-05V4.19042C20.6636 4.18832 23.1751 4.88985 25.3602 6.21759C27.5453 7.54532 29.3188 9.4476 30.4851 11.7144Z" fill="#FFB802"/>
<path d="M36.0825 15.9048H22.0637V20.0952H31.832C31.3235 23.3597 29.6568 26.3355 27.1333 28.4841C24.6098 30.6328 21.3962 31.8124 18.0739 31.8096V36C22.875 36 27.4795 34.1036 30.8745 30.7279C34.2694 27.3523 36.1767 22.7739 36.1767 18C36.1854 17.3004 36.154 16.6008 36.0825 15.9048Z" fill="#FFB802"/>
<path d="M53.3888 9.48218V14.1334H59.7827V16.8838H53.3888V21.715H60.5503V24.595H49.7827V6.63818H60.5503V9.48218H53.3888Z" fill="white"/>
<path d="M75.5539 11.9014C76.5936 13.1643 77.1113 14.773 77.0022 16.4014V24.5878H73.4178V16.8046C73.4765 15.857 73.1653 14.9234 72.5489 14.1982C72.2425 13.8839 71.8721 13.6383 71.4624 13.4781C71.0528 13.3179 70.6134 13.2468 70.1738 13.2694C69.7168 13.2497 69.2609 13.3282 68.8373 13.4997C68.4136 13.6712 68.0322 13.9316 67.719 14.263C67.0589 15.0597 66.7299 16.0771 66.7994 17.107V24.5878H63.1788V10.4974H66.7994V13.3198C67.1532 12.395 67.805 11.6126 68.6531 11.095C69.5487 10.5529 70.581 10.2757 71.6292 10.2958C72.3618 10.2606 73.0933 10.3862 73.7715 10.6637C74.4498 10.9412 75.0584 11.3638 75.5539 11.9014Z" fill="white"/>
<path d="M93.3816 18.2304H82.9979C82.9592 19.2518 83.3259 20.2474 84.0189 21.0024C84.6554 21.5942 85.5011 21.9124 86.3722 21.888C87.1147 21.9146 87.846 21.7025 88.4577 21.2832C89.0053 20.8815 89.3824 20.2909 89.5149 19.6272H93.3309C93.1498 20.5913 92.7375 21.4977 92.1289 22.2696C91.501 23.0616 90.6882 23.6894 89.7611 24.0984C88.6669 24.5693 87.4817 24.7942 86.29 24.7568C85.0983 24.7195 83.9297 24.4209 82.8675 23.8824C81.8071 23.3078 80.9369 22.44 80.3621 21.384C79.7761 20.1848 79.4716 18.8689 79.4716 17.5356C79.4716 16.2023 79.7761 14.8864 80.3621 13.6872C80.9325 12.6279 81.8038 11.759 82.8675 11.1888C84.0039 10.5984 85.2713 10.3013 86.5532 10.3248C87.8289 10.2951 89.0908 10.5927 90.2173 11.1888C91.2379 11.7361 92.0815 12.56 92.6503 13.5648C93.233 14.6179 93.5277 15.8046 93.5047 17.0064C93.4983 17.4171 93.4572 17.8265 93.3816 18.2304ZM88.9645 14.0328C88.3057 13.4395 87.4418 13.1222 86.5532 13.1472C85.6516 13.1221 84.7742 13.4387 84.0985 14.0328C83.7479 14.3741 83.4698 14.7819 83.2808 15.2321C83.0917 15.6823 82.9955 16.1657 82.9979 16.6536H89.8624C89.9221 16.1776 89.8722 15.6945 89.7167 15.2405C89.5611 14.7865 89.304 14.3735 88.9645 14.0328Z" fill="white"/>
<path d="M101.767 11.0738C102.642 10.5549 103.644 10.2859 104.663 10.2962V14.1338H103.621C100.985 14.1338 99.6596 15.3578 99.6596 17.7986V24.5882H96.0391V10.4978H99.6596V13.1978C100.168 12.3221 100.893 11.5907 101.767 11.0738Z" fill="white"/>
<path d="M115.293 11.16C116.125 11.7007 116.76 12.4934 117.104 13.4208V10.4976H120.688V24.6384C120.707 25.8566 120.439 27.0623 119.906 28.1592C119.394 29.1871 118.584 30.0396 117.582 30.6072C116.434 31.2318 115.139 31.5401 113.831 31.5C112.062 31.5853 110.315 31.0783 108.87 30.06C107.611 29.0967 106.784 27.6793 106.568 26.1144H110.138C110.322 26.7955 110.746 27.3882 111.332 27.7848C112.007 28.2067 112.795 28.4151 113.592 28.3824C114.058 28.4037 114.525 28.3325 114.963 28.173C115.402 28.0136 115.805 27.769 116.148 27.4536C116.495 27.0773 116.761 26.6336 116.928 26.1504C117.095 25.6672 117.16 25.1549 117.118 24.6456V21.6432C116.775 22.5746 116.14 23.372 115.308 23.9184C114.394 24.5034 113.324 24.7996 112.238 24.768C111.104 24.784 109.988 24.4847 109.015 23.904C108.038 23.3051 107.26 22.4337 106.778 21.3984C106.248 20.1826 105.974 18.8715 105.974 17.5464C105.974 16.2212 106.248 14.9102 106.778 13.6944C107.263 12.6624 108.04 11.794 109.015 11.196C109.988 10.6153 111.104 10.316 112.238 10.332C113.316 10.3 114.38 10.5882 115.293 11.16ZM110.637 14.544C109.92 15.3734 109.554 16.447 109.616 17.5392C109.551 18.6295 109.918 19.7019 110.637 20.5272C111.362 21.227 112.332 21.6184 113.342 21.6184C114.352 21.6184 115.322 21.227 116.046 20.5272C116.731 19.6855 117.104 18.6359 117.104 17.5536C117.104 16.4713 116.731 15.4217 116.046 14.58C115.326 13.8734 114.354 13.4773 113.342 13.4773C112.33 13.4773 111.358 13.8734 110.637 14.58V14.544Z" fill="white"/>
<path d="M126.387 10.4976L130.246 20.0592L133.867 10.4976H137.828L129.138 31.2984H125.149L128.342 24.1775L122.39 10.4976H126.387Z" fill="white"/>
<path d="M153.885 8.07129C155.325 9.13241 156.319 10.6871 156.673 12.4345H152.886C152.536 11.6259 151.941 10.9462 151.184 10.4905C150.358 9.99174 149.405 9.74165 148.439 9.77049C147.471 9.7531 146.516 10.0023 145.681 10.4905C144.872 10.9713 144.222 11.6771 143.812 12.5209C143.347 13.4885 143.119 14.5519 143.146 15.6241C143.049 17.2327 143.595 18.8143 144.667 20.0233C145.21 20.5604 145.861 20.9782 146.577 21.2498C147.293 21.5214 148.058 21.6407 148.823 21.6001C150.038 21.6287 151.223 21.2224 152.161 20.4553C153.119 19.6403 153.757 18.5162 153.964 17.2801H147.86V14.7097H156.984V18.1657C156.729 19.3538 156.221 20.4735 155.492 21.4489C154.732 22.4652 153.739 23.2871 152.596 23.8465C151.312 24.4699 149.897 24.7808 148.468 24.7537C146.829 24.7862 145.21 24.3862 143.776 23.5945C142.438 22.8433 141.346 21.7231 140.634 20.3689C139.9 18.8948 139.519 17.2723 139.519 15.6277C139.519 13.983 139.9 12.3606 140.634 10.8865C141.347 9.53176 142.431 8.40582 143.762 7.63928C145.188 6.84102 146.803 6.43819 148.439 6.47289C150.381 6.4013 152.293 6.96258 153.885 8.07129Z" fill="white"/>
<path d="M159.895 5.0402C160.341 4.66007 160.916 4.46424 161.503 4.49301C162.091 4.46531 162.668 4.6609 163.117 5.0402C163.32 5.22037 163.479 5.44305 163.585 5.6921C163.69 5.94116 163.738 6.21035 163.726 6.4802C163.733 6.74095 163.682 7.00006 163.577 7.23903C163.472 7.478 163.315 7.69093 163.117 7.8626C162.668 8.24191 162.091 8.43749 161.503 8.4098C160.916 8.43857 160.341 8.24274 159.895 7.8626C159.695 7.6926 159.536 7.48016 159.429 7.24092C159.323 7.00168 159.272 6.74173 159.28 6.4802C159.267 6.2096 159.315 5.93956 159.422 5.69023C159.528 5.4409 159.69 5.2187 159.895 5.0402ZM163.291 10.4906V24.581H159.671V10.4978L163.291 10.4906Z" fill="white"/>
<path d="M175.181 11.1599C176.017 11.6983 176.654 12.4915 176.998 13.4207V10.4975H180.576V24.6383C180.593 25.8555 180.328 27.0603 179.801 28.1591C179.289 29.1896 178.476 30.0427 177.469 30.6071C176.324 31.2318 175.031 31.5401 173.726 31.4999C171.957 31.5852 170.21 31.0782 168.765 30.0599C167.506 29.0966 166.679 27.6792 166.463 26.1143H170.018C170.2 26.7946 170.621 27.3874 171.206 27.7847C171.883 28.2064 172.673 28.4147 173.472 28.3823C173.939 28.4028 174.405 28.3313 174.843 28.1718C175.282 28.0124 175.685 27.7683 176.028 27.4535C176.374 27.0762 176.639 26.6324 176.806 26.1494C176.973 25.6665 177.038 25.1547 176.998 24.6455V21.6431C176.655 22.5766 176.018 23.3747 175.181 23.9183C174.27 24.5032 173.202 24.7994 172.118 24.7679C170.984 24.785 169.867 24.4857 168.896 23.9039C167.919 23.305 167.141 22.4336 166.658 21.3983C166.123 20.1837 165.847 18.8722 165.847 17.5463C165.847 16.2204 166.123 14.9089 166.658 13.6943C167.143 12.6624 167.921 11.7939 168.896 11.1959C169.867 10.6141 170.984 10.3148 172.118 10.3319C173.199 10.2971 174.266 10.5855 175.181 11.1599ZM170.532 14.5439C169.81 15.3707 169.441 16.4456 169.504 17.5391C169.438 18.6309 169.807 19.7045 170.532 20.5271C171.255 21.2264 172.224 21.6177 173.233 21.6177C174.242 21.6177 175.211 21.2264 175.934 20.5271C176.622 19.6871 176.998 18.6369 176.998 17.5535C176.998 16.4702 176.622 15.4199 175.934 14.5799C175.214 13.8738 174.244 13.4778 173.233 13.4778C172.222 13.4778 171.252 13.8738 170.532 14.5799V14.5439Z" fill="white"/>
<path d="M192.878 11.6209C193.926 12.5005 194.615 13.7289 194.819 15.0769H191.445C191.335 14.4455 191.011 13.8708 190.525 13.4497C189.999 13.0238 189.334 12.8058 188.657 12.8377C188.138 12.8046 187.624 12.9579 187.208 13.2697C187.039 13.4133 186.905 13.594 186.817 13.7975C186.729 14.0011 186.69 14.2221 186.702 14.4433C186.696 14.6194 186.729 14.7946 186.799 14.9564C186.869 15.1182 186.974 15.2626 187.107 15.3793C187.409 15.6323 187.759 15.8232 188.135 15.9409C188.541 16.0777 189.127 16.2361 189.895 16.4233C190.785 16.5999 191.661 16.8406 192.516 17.1433C193.191 17.4077 193.788 17.8359 194.254 18.3889C194.767 19.0451 195.024 19.8632 194.978 20.6929C194.989 21.2597 194.863 21.8209 194.611 22.3295C194.359 22.8381 193.989 23.2792 193.53 23.6161C192.422 24.4122 191.072 24.8061 189.707 24.7321C188.137 24.8101 186.584 24.3779 185.282 23.5009C184.725 23.0793 184.258 22.5502 183.911 21.9453C183.564 21.3403 183.343 20.6719 183.262 19.9801H186.716C186.747 20.3021 186.844 20.6144 187.002 20.897C187.161 21.1796 187.376 21.4264 187.636 21.6217C188.241 22.0427 188.969 22.2528 189.707 22.2193C190.215 22.2532 190.717 22.0937 191.111 21.7729C191.272 21.6261 191.398 21.4464 191.482 21.2463C191.566 21.0461 191.605 20.8303 191.597 20.6137C191.604 20.4287 191.57 20.2444 191.497 20.0739C191.425 19.9034 191.315 19.7509 191.177 19.6273C190.874 19.357 190.516 19.1556 190.127 19.0369C189.714 18.9073 189.12 18.7417 188.353 18.5545C187.481 18.3704 186.622 18.1299 185.782 17.8345C185.126 17.5901 184.545 17.1808 184.095 16.6465C183.586 16.0162 183.328 15.2217 183.371 14.4145C183.355 13.8442 183.474 13.2783 183.718 12.762C183.962 12.2457 184.324 11.7933 184.775 11.4409C185.897 10.619 187.273 10.2139 188.664 10.2961C190.184 10.2138 191.682 10.6847 192.878 11.6209Z" fill="white"/>
</g>
<defs>
<clipPath id="clip0_1561_3295">
<rect width="195" height="36" fill="white"/>
</clipPath>
</defs>
</svg>
