<svg width="105" height="105" viewBox="0 0 105 105" fill="none" xmlns="http://www.w3.org/2000/svg">
<circle cx="52.5" cy="52.5" r="52.5" fill="#F9F9F9"/>
<path d="M35.3995 52.7983V60.2627L19.3281 52.7983V84.2927H51.4709V60.2627L35.3995 52.7983Z" fill="#949090"/>
<path d="M51.4707 60.4614H84.6717V84.2929H51.4707V60.4614Z" fill="#ECE8E8"/>
<path d="M29.2867 38.9126H24.0881L23 54.5041L30.622 58.044L29.2867 38.9126Z" fill="#ECE8E8"/>
<path d="M45.3589 38.9126H40.1604L39.0723 54.5041L46.6942 58.044L45.3589 38.9126Z" fill="#ECE8E8"/>
<path d="M40.4844 67.9196C40.4844 69.5504 41.8064 70.8724 43.4372 70.8724H43.4409C45.0717 70.8724 46.3937 69.5504 46.3937 67.9196C46.3937 66.2888 45.0717 64.9668 43.4409 64.9668H43.4372C41.8064 64.9668 40.4844 66.2888 40.4844 67.9196Z" fill="white"/>
<path d="M24.5215 67.9196C24.5215 69.5504 25.8435 70.8724 27.4743 70.8724H27.478C29.1088 70.8724 30.4308 69.5504 30.4308 67.9196C30.4308 66.2888 29.1088 64.9668 27.478 64.9668H27.4743C25.8435 64.9668 24.5215 66.2888 24.5215 67.9196Z" fill="white"/>
<path d="M64.5117 76.7505H71.6309V84.2929H64.5117V76.7505Z" fill="white"/>
<path d="M58.9609 54.748H77.1818V60.4615H58.9609V54.748Z" fill="white"/>
<path d="M52.1997 21.7065C49.3469 21.7065 47.0342 24.0192 47.0342 26.872C47.0342 27.1667 47.0602 27.4552 47.1076 27.7364C47.0696 27.735 47.0317 27.7334 46.9934 27.7334C45.1838 27.7334 43.7168 29.2005 43.7168 31.0101C43.7168 32.8196 45.1838 34.2867 46.9934 34.2867C48.5877 34.2867 49.9154 33.1478 50.2091 31.6395C50.8219 31.8957 51.4942 32.0375 52.1998 32.0375C55.0526 32.0375 57.3653 29.7248 57.3653 26.872C57.3651 24.0192 55.0525 21.7065 52.1997 21.7065V21.7065Z" fill="#F9F9F9"/>
<path d="M34.4008 21.7065C31.548 21.7065 29.2354 24.0192 29.2354 26.872C29.2354 27.1667 29.2614 27.4552 29.3088 27.7364C29.2708 27.735 29.2328 27.7334 29.1946 27.7334C27.385 27.7334 25.918 29.2005 25.918 31.0101C25.918 32.8196 27.385 34.2867 29.1946 34.2867C30.7889 34.2867 32.1166 33.1478 32.4102 31.6395C33.023 31.8957 33.6953 32.0375 34.401 32.0375C37.2538 32.0375 39.5664 29.7248 39.5664 26.872C39.5663 24.0192 37.2536 21.7065 34.4008 21.7065V21.7065Z" fill="#F9F9F9"/>
<path d="M19.3281 85.621H84.6719C85.4053 85.621 86 85.0264 86 84.2929V78.0077C86 77.2742 85.4053 76.6796 84.6719 76.6796C83.9385 76.6796 83.3438 77.2742 83.3438 78.0077V82.9648H72.9591V76.7505C72.9591 76.017 72.3644 75.4224 71.631 75.4224H64.5117C63.7783 75.4224 63.1836 76.017 63.1836 76.7505V82.9648H52.7991V61.7894H83.3438V66.3162C83.3438 67.0497 83.9385 67.6443 84.6719 67.6443C85.4053 67.6443 86 67.0497 86 66.3162V60.4613C86 59.7278 85.4053 59.1332 84.6719 59.1332H78.5099V44.6455C78.5099 43.9119 77.9152 43.3173 77.1818 43.3173C76.4484 43.3173 75.8537 43.9119 75.8537 44.6455V53.4197H58.961C58.2276 53.4197 57.6328 54.0143 57.6328 54.7478V59.1332H52.1655C52.1218 59.1063 47.9649 57.1701 47.9649 57.1701L46.6842 38.8202C46.6356 38.1242 46.0569 37.5845 45.3592 37.5845H40.1607C39.4632 37.5845 38.8844 38.1242 38.8358 38.8202L37.882 52.4871L35.9589 51.5939C35.5475 51.4027 35.0673 51.435 34.685 51.6789C34.3027 51.9229 34.0712 52.345 34.0712 52.7985V58.1816L31.893 57.1699L30.6123 38.8202C30.5637 38.1242 29.985 37.5845 29.2873 37.5845H24.0891C23.3915 37.5845 22.8127 38.1242 22.7641 38.8202L21.8104 52.487L19.8877 51.5939C19.4763 51.4027 18.996 51.435 18.6137 51.6789C18.2314 51.9229 18 52.345 18 52.7984V84.2929C18 85.0264 18.5946 85.621 19.3281 85.621V85.621ZM65.8399 78.0786H70.3029V82.9648H65.8399V78.0786ZM41.3994 40.2407H44.1206L45.213 55.8915L40.4612 53.6845L41.3994 40.2407ZM25.3277 40.2407H28.0489L29.1412 55.8915L24.3895 53.6845L25.3277 40.2407ZM60.2891 56.076H75.8537V59.1332H60.2891V56.076ZM20.6562 54.8797L34.8401 61.4673C35.2513 61.6583 35.7317 61.6263 36.114 61.3824C36.4964 61.1384 36.7278 60.7163 36.7278 60.2627V54.8797L50.1429 61.1104V82.9648H20.6562V54.8797Z" fill="#4D4D4D"/>
<path d="M60.4801 64.6821H57.4434C56.71 64.6821 56.1152 65.2767 56.1152 66.0103C56.1152 66.7438 56.71 67.3384 57.4434 67.3384H60.48C61.2134 67.3384 61.8081 66.7438 61.8081 66.0103C61.8081 65.2767 61.2135 64.6821 60.4801 64.6821V64.6821Z" fill="#4D4D4D"/>
<path d="M60.4801 69.6455H57.4434C56.71 69.6455 56.1152 70.2401 56.1152 70.9736C56.1152 71.7072 56.71 72.3018 57.4434 72.3018H60.48C61.2134 72.3018 61.8081 71.7072 61.8081 70.9736C61.8081 70.2401 61.2135 69.6455 60.4801 69.6455V69.6455Z" fill="#4D4D4D"/>
<path d="M69.523 64.6821H66.6191C65.8858 64.6821 65.291 65.2767 65.291 66.0103C65.291 66.7438 65.8858 67.3384 66.6191 67.3384H69.523C70.2563 67.3384 70.8511 66.7438 70.8511 66.0103C70.8511 65.2767 70.2565 64.6821 69.523 64.6821Z" fill="#4D4D4D"/>
<path d="M69.523 69.6455H66.6191C65.8858 69.6455 65.291 70.2401 65.291 70.9736C65.291 71.7072 65.8858 72.3018 66.6191 72.3018H69.523C70.2563 72.3018 70.8511 71.7072 70.8511 70.9736C70.8511 70.2401 70.2565 69.6455 69.523 69.6455Z" fill="#4D4D4D"/>
<path d="M78.7007 64.6821H75.6641C74.9307 64.6821 74.3359 65.2767 74.3359 66.0103C74.3359 66.7438 74.9307 67.3384 75.6641 67.3384H78.7007C79.4341 67.3384 80.0288 66.7438 80.0288 66.0103C80.0288 65.2767 79.4342 64.6821 78.7007 64.6821Z" fill="#4D4D4D"/>
<path d="M78.7007 69.6455H75.6641C74.9307 69.6455 74.3359 70.2401 74.3359 70.9736C74.3359 71.7072 74.9307 72.3018 75.6641 72.3018H78.7007C79.4341 72.3018 80.0288 71.7072 80.0288 70.9736C80.0288 70.2401 79.4342 69.6455 78.7007 69.6455Z" fill="#4D4D4D"/>
<path d="M28.6088 75.373H25.8809C25.1473 75.373 24.5527 75.9676 24.5527 76.7012C24.5527 77.4347 25.1473 78.0293 25.8809 78.0293H28.6087C29.3422 78.0293 29.9368 77.4347 29.9368 76.7012C29.9368 75.9676 29.3424 75.373 28.6088 75.373V75.373Z" fill="#4D4D4D"/>
<path d="M36.7315 75.373H34.123C33.3895 75.373 32.7949 75.9676 32.7949 76.7012C32.7949 77.4347 33.3895 78.0293 34.123 78.0293H36.7315C37.465 78.0293 38.0596 77.4347 38.0596 76.7012C38.0596 75.9676 37.465 75.373 36.7315 75.373Z" fill="#4D4D4D"/>
<path d="M44.9757 75.373H42.248C41.5145 75.373 40.9199 75.9676 40.9199 76.7012C40.9199 77.4347 41.5145 78.0293 42.248 78.0293H44.9759C45.7094 78.0293 46.304 77.4347 46.304 76.7012C46.304 75.9676 45.7093 75.373 44.9757 75.373V75.373Z" fill="#4D4D4D"/>
<path d="M43.4372 63.6387C41.0767 63.6387 39.1562 65.559 39.1562 67.9196C39.1562 70.2801 41.0766 72.2004 43.4409 72.2004C45.8014 72.2004 47.7219 70.2801 47.7219 67.9196C47.7219 65.5591 45.8014 63.6387 43.4372 63.6387V63.6387ZM43.4372 69.5443C42.5414 69.5443 41.8125 68.8156 41.8125 67.9197C41.8125 67.0239 42.5414 66.2951 43.4409 66.2951C44.3367 66.2951 45.0656 67.0239 45.0656 67.9197C45.0656 68.8156 44.3367 69.5443 43.4372 69.5443Z" fill="#4D4D4D"/>
<path d="M27.4743 63.6387C25.1138 63.6387 23.1934 65.559 23.1934 67.9196C23.1934 70.2801 25.1137 72.2004 27.478 72.2004C29.8385 72.2004 31.759 70.2801 31.759 67.9196C31.759 65.5591 29.8385 63.6387 27.4743 63.6387V63.6387ZM27.4743 69.5443C26.5785 69.5443 25.8496 68.8156 25.8496 67.9197C25.8496 67.0239 26.5785 66.2951 27.478 66.2951C28.3738 66.2951 29.1027 67.0239 29.1027 67.9197C29.1027 68.8156 28.3738 69.5443 27.4743 69.5443Z" fill="#4D4D4D"/>
<path d="M52.1998 20.3784C48.7149 20.3784 45.8624 23.138 45.7123 26.5866C43.7945 27.1428 42.3887 28.9153 42.3887 31.0101C42.3887 33.5492 44.4543 35.6148 46.9934 35.6148C48.6937 35.6148 50.2158 34.6787 51.0126 33.2574C51.4016 33.3294 51.7982 33.3656 52.1997 33.3656C55.7803 33.3656 58.6934 30.4526 58.6934 26.872C58.6934 23.2914 55.7804 20.3784 52.1998 20.3784V20.3784ZM52.1998 30.7095C51.6875 30.7095 51.19 30.6102 50.7213 30.4141C50.3528 30.2601 49.9347 30.2799 49.5825 30.4684C49.2304 30.6569 48.9818 30.9937 48.9054 31.3858C48.7281 32.2971 47.9239 32.9587 46.9934 32.9587C45.9191 32.9587 45.0449 32.0845 45.0449 31.0102C45.0449 29.9359 45.9191 29.0617 46.9934 29.0617C47.0107 29.0617 47.0277 29.0625 47.0448 29.0632L47.0623 29.0637C47.4609 29.076 47.8445 28.9111 48.107 28.6111C48.3696 28.311 48.4836 27.9088 48.4173 27.5155C48.3809 27.2994 48.3623 27.0828 48.3623 26.872C48.3623 24.7561 50.0837 23.0345 52.1997 23.0345C54.3156 23.0345 56.0371 24.7559 56.0371 26.872C56.0373 28.9881 54.3158 30.7095 52.1998 30.7095V30.7095Z" fill="#4D4D4D"/>
<path d="M34.401 20.3784C30.9161 20.3784 28.0636 23.138 27.9136 26.5866C25.9957 27.1428 24.5898 28.9153 24.5898 31.0101C24.5898 33.5492 26.6556 35.6148 29.1946 35.6148C30.8949 35.6148 32.417 34.6787 33.2138 33.2574C33.6028 33.3294 33.9993 33.3656 34.4008 33.3656C37.9813 33.3656 40.8944 30.4526 40.8944 26.872C40.8944 23.2914 37.9815 20.3784 34.401 20.3784V20.3784ZM34.401 30.7095C33.8887 30.7095 33.3912 30.6102 32.9225 30.4141C32.5538 30.2601 32.1357 30.2799 31.7836 30.4684C31.4315 30.6569 31.1829 30.9937 31.1066 31.3858C30.9292 32.2971 30.1251 32.9587 29.1946 32.9587C28.1201 32.9587 27.2461 32.0845 27.2461 31.0102C27.2461 29.9359 28.1203 29.0617 29.1946 29.0617C29.2119 29.0617 29.2289 29.0625 29.246 29.0632L29.2634 29.0637C29.6622 29.0782 30.0455 28.9112 30.3081 28.6112C30.5708 28.3112 30.6847 27.909 30.6185 27.5159C30.5821 27.2994 30.5635 27.0829 30.5635 26.8722C30.5635 24.7562 32.2849 23.0347 34.4008 23.0347C36.5168 23.0347 38.2382 24.7561 38.2382 26.8722C38.2383 28.9881 36.5169 30.7095 34.401 30.7095V30.7095Z" fill="#4D4D4D"/>
<path d="M85.7759 71.5643C85.3796 70.958 84.5333 70.801 83.9352 71.1977C83.332 71.5979 83.1684 72.4378 83.5685 73.0385C83.9694 73.6399 84.8078 73.8084 85.4093 73.4064C86.011 73.0042 86.1772 72.1658 85.7759 71.5643Z" fill="#4D4D4D"/>
</svg>
