<svg width="105" height="105" viewBox="0 0 105 105" fill="none" xmlns="http://www.w3.org/2000/svg">
<circle cx="52.5" cy="52.5" r="52.5" fill="#F9F9F9"/>
<g clip-path="url(#clip0_1_2719)">
<path d="M74.0188 54.6613C67.7779 54.7487 62.6849 59.8416 62.5988 66.0825C62.5644 68.5471 63.299 70.837 64.5786 72.7295L71.5874 83.6474C72.8006 85.5387 75.5667 85.5387 76.78 83.6474L83.7887 72.7295C85.0768 70.8228 85.7698 68.5481 85.7698 66.2474C85.7698 59.7936 80.4935 54.5715 74.0188 54.6613V54.6613ZM74.1837 71.2874C71.3917 71.2874 69.1301 69.0258 69.1301 66.2339C69.1301 63.4432 71.3917 61.1803 74.1837 61.1803C76.9744 61.1803 79.2372 63.4432 79.2372 66.2339C79.2372 69.0258 76.9744 71.2874 74.1837 71.2874Z" fill="#949090"/>
<path d="M74.1843 45.4264V54.6475C74.1289 54.6475 74.0736 54.6475 74.0182 54.6487C67.7785 54.7349 62.6856 59.829 62.5982 66.07C62.5724 67.9292 62.9846 69.69 63.7389 71.2552H30.627V45.3761L52.405 32.9224L74.1843 45.4264Z" fill="white"/>
<path d="M48.0176 56.6064H56.7927V71.2557H48.0176V56.6064Z" fill="#ECE8E8"/>
<path d="M79.5788 41.4097V48.5238L52.4054 32.9233L25.2305 48.5238V41.4097L52.4054 25.9346L79.5788 41.4097Z" fill="#949090"/>
<path d="M34.9707 35.8631V25.9346H41.331V32.2411L34.9707 35.8631Z" fill="#949090"/>
<path d="M52.8245 49.6491C54.9368 49.6491 56.6491 47.9368 56.6491 45.8245C56.6491 43.7123 54.9368 42 52.8245 42C50.7123 42 49 43.7123 49 45.8245C49 47.9368 50.7123 49.6491 52.8245 49.6491Z" fill="#ECE8E8"/>
<path d="M83.1822 57.1206C81.0593 55.0269 78.3395 53.7654 75.4139 53.4886V47.5516L78.9663 49.5911C79.77 50.0527 80.8094 49.4513 80.8094 48.524V41.4099C80.8094 40.9677 80.572 40.5596 80.1878 40.3408L71.4023 35.3374C70.812 35.0013 70.0604 35.2071 69.7241 35.7978C69.3878 36.3883 69.5938 37.1395 70.1843 37.4759L78.3485 42.1253V46.3987L53.0168 31.8556C52.6379 31.638 52.1724 31.6377 51.7933 31.8545L26.4609 46.3987V42.1252L52.4055 27.3506L60.7994 32.131C61.3901 32.4673 62.1413 32.2614 62.4776 31.6706C62.8139 31.0801 62.6079 30.3289 62.0174 29.9925L53.0145 24.8654C52.6371 24.6503 52.174 24.6503 51.7967 24.8654L42.5614 30.1246V25.9346C42.5614 25.2551 42.0104 24.7041 41.3309 24.7041H34.9706C34.2911 24.7041 33.7401 25.2551 33.7401 25.9346V35.1478L24.6216 40.3407C24.2374 40.5594 24 40.9676 24 41.4098V48.5239C24 48.9629 24.2339 49.3687 24.6139 49.5887C24.9938 49.8089 25.4624 49.8095 25.843 49.5911L29.3955 47.5517V71.2553C29.3955 71.9348 29.9465 72.4858 30.626 72.4858H62.986C63.161 72.7989 63.3483 73.1064 63.5506 73.4062L70.5515 84.3117C71.3487 85.5543 72.7064 86.2962 74.1836 86.2962C75.6606 86.2962 77.0183 85.5543 77.8153 84.3121L84.8165 73.4058C86.2359 71.2991 87 68.7874 87 66.2474C87 62.7898 85.6441 59.5485 83.1822 57.1206V57.1206ZM36.2011 27.165H40.1003V31.5258L36.2011 33.7464V27.165ZM55.5618 70.0248H49.2477V57.8369H55.5618V70.0248ZM58.0227 70.0248V56.6065C58.0227 55.927 57.4717 55.376 56.7922 55.376H48.0173C47.3378 55.376 46.7868 55.927 46.7868 56.6065V70.0248H31.8565V46.139L52.4055 34.3422L72.953 46.1391V53.4757C70.006 53.7574 67.2597 55.0516 65.1301 57.1815C62.7503 59.5618 61.4139 62.7123 61.367 66.0531C61.3483 67.3955 61.5385 68.7417 61.9335 70.0248H58.0227ZM84.0727 69.3299C83.7679 70.3108 83.3059 71.2033 82.753 72.0647L75.744 82.9829C75.3966 83.5246 74.8277 83.8353 74.1834 83.8353C73.5392 83.8353 72.9703 83.5247 72.6225 82.9825L65.6137 72.0647C64.4633 70.2609 63.7988 68.2509 63.8288 66.0994C63.9048 60.599 68.528 55.9687 74.0355 55.8917C79.7375 55.8056 84.5391 60.5483 84.5391 66.2474C84.5391 67.2997 84.3823 68.3365 84.0727 69.3299V69.3299Z" fill="#4D4D4D"/>
<path d="M74.1843 59.9497C70.7193 59.9497 67.9004 62.7687 67.9004 66.2337C67.9004 69.6987 70.7193 72.5177 74.1843 72.5177C77.6493 72.5177 80.4683 69.6987 80.4683 66.2337C80.4683 62.7687 77.6493 59.9497 74.1843 59.9497ZM74.1843 70.0568C72.0762 70.0568 70.3613 68.3418 70.3613 66.2337C70.3613 64.1257 72.0764 62.4106 74.1843 62.4106C76.2922 62.4106 78.0073 64.1257 78.0073 66.2337C78.0073 68.3418 76.2923 70.0568 74.1843 70.0568Z" fill="#4D4D4D"/>
<path d="M52.4046 40.3213C49.6174 40.3213 47.3496 42.589 47.3496 45.3763C47.3496 48.1637 49.6174 50.4314 52.4046 50.4314C55.192 50.4314 57.4598 48.1637 57.4598 45.3763C57.4598 42.589 55.192 40.3213 52.4046 40.3213V40.3213ZM52.4046 47.9705C50.9742 47.9705 49.8105 46.8067 49.8105 45.3763C49.8105 43.9459 50.9742 42.7822 52.4046 42.7822C53.835 42.7822 54.9988 43.9459 54.9988 45.3763C54.9988 46.8067 53.835 47.9705 52.4046 47.9705Z" fill="#4D4D4D"/>
<path d="M65.0831 34.2723C65.3409 34.8917 66.0681 35.1925 66.6889 34.938C67.3089 34.6836 67.6109 33.9484 67.3546 33.331C67.0975 32.7117 66.3678 32.4084 65.7476 32.6653C65.1263 32.9226 64.8288 33.6525 65.0831 34.2723V34.2723Z" fill="#4D4D4D"/>
</g>
<defs>
<clipPath id="clip0_1_2719">
<rect width="63" height="63" fill="white" transform="translate(24 24)"/>
</clipPath>
</defs>
</svg>
