<svg width="105" height="105" viewBox="0 0 105 105" fill="none" xmlns="http://www.w3.org/2000/svg">
<g clip-path="url(#clip0_38_19)">
<path d="M52.5 105C81.4949 105 105 81.4949 105 52.5C105 23.5051 81.4949 0 52.5 0C23.5051 0 0 23.5051 0 52.5C0 81.4949 23.5051 105 52.5 105Z" fill="#FFF7D1"/>
<g clip-path="url(#clip1_38_19)">
<mask id="mask0_38_19" style="mask-type:luminance" maskUnits="userSpaceOnUse" x="21" y="21" width="63" height="63">
<path d="M84 21H21V84H84V21Z" fill="white"/>
</mask>
<g mask="url(#mask0_38_19)">
<path d="M71.0188 51.6613C64.7779 51.7487 59.6849 56.8416 59.5988 63.0825C59.5644 65.5471 60.299 67.837 61.5786 69.7295L68.5874 80.6474C69.8006 82.5387 72.5667 82.5387 73.78 80.6474L80.7887 69.7295C82.0768 67.8228 82.7698 65.5481 82.7698 63.2474C82.7698 56.7936 77.4935 51.5715 71.0188 51.6613ZM71.1837 68.2874C68.3917 68.2874 66.1301 66.0258 66.1301 63.2339C66.1301 60.4432 68.3917 58.1803 71.1837 58.1803C73.9744 58.1803 76.2372 60.4432 76.2372 63.2339C76.2372 66.0258 73.9744 68.2874 71.1837 68.2874Z" fill="#949090"/>
<path d="M71.1843 42.4264V51.6475C71.1289 51.6475 71.0736 51.6475 71.0182 51.6488C64.7785 51.7349 59.6856 56.829 59.5982 63.07C59.5724 64.9292 59.9846 66.69 60.7389 68.2552H27.627V42.3761L49.405 29.9224L71.1843 42.4264Z" fill="white"/>
<path d="M45.0176 53.6064H53.7927V68.2557H45.0176V53.6064Z" fill="#FFF7D1"/>
<path d="M76.5788 38.4097V45.5238L49.4054 29.9233L22.2305 45.5238V38.4097L49.4054 22.9346L76.5788 38.4097Z" fill="#FFB802"/>
<path d="M31.9707 32.8631V22.9346H38.331V29.2411L31.9707 32.8631Z" fill="#FFB802"/>
<path d="M49.8245 46.6491C51.9368 46.6491 53.6491 44.9368 53.6491 42.8245C53.6491 40.7123 51.9368 39 49.8245 39C47.7123 39 46 40.7123 46 42.8245C46 44.9368 47.7123 46.6491 49.8245 46.6491Z" fill="#FFF7D1"/>
<path d="M80.1822 54.1206C78.0593 52.0269 75.3395 50.7654 72.4139 50.4886V44.5516L75.9663 46.5911C76.77 47.0527 77.8094 46.4513 77.8094 45.524V38.4099C77.8094 37.9677 77.572 37.5596 77.1878 37.3408L68.4023 32.3374C67.812 32.0013 67.0604 32.2071 66.7241 32.7978C66.3878 33.3883 66.5938 34.1395 67.1843 34.4759L75.3484 39.1253V43.3987L50.0168 28.8556C49.6379 28.638 49.1724 28.6377 48.7933 28.8545L23.4609 43.3987V39.1252L49.4055 24.3506L57.7994 29.131C58.3901 29.4672 59.1413 29.2614 59.4776 28.6707C59.8139 28.0801 59.6079 27.3289 59.0174 26.9925L50.0145 21.8654C49.6371 21.6503 49.174 21.6503 48.7967 21.8654L39.5614 27.1246V22.9346C39.5614 22.2551 39.0104 21.7041 38.3309 21.7041H31.9706C31.2911 21.7041 30.7401 22.2551 30.7401 22.9346V32.1478L21.6216 37.3407C21.2374 37.5594 21 37.9676 21 38.4098V45.5239C21 45.9629 21.2339 46.3687 21.6139 46.5887C21.9938 46.8089 22.4624 46.8095 22.843 46.5911L26.3955 44.5517V68.2553C26.3955 68.9348 26.9465 69.4858 27.6259 69.4858H59.986C60.161 69.7989 60.3483 70.1064 60.5506 70.4062L67.5515 81.3117C68.3487 82.5543 69.7064 83.2962 71.1836 83.2962C72.6606 83.2962 74.0183 82.5543 74.8153 81.3121L81.8165 70.4058C83.2359 68.2991 84 65.7874 84 63.2474C84 59.7898 82.6441 56.5485 80.1822 54.1206ZM33.2011 24.165H37.1003V28.5258L33.2011 30.7465V24.165ZM52.5618 67.0248H46.2477V54.8369H52.5618V67.0248ZM55.0227 67.0248V53.6065C55.0227 52.927 54.4717 52.376 53.7922 52.376H45.0173C44.3378 52.376 43.7868 52.927 43.7868 53.6065V67.0248H28.8565V43.139L49.4055 31.3422L69.953 43.1391V50.4757C67.006 50.7574 64.2597 52.0516 62.1301 54.1815C59.7503 56.5618 58.4139 59.7123 58.367 63.0531C58.3483 64.3955 58.5385 65.7417 58.9335 67.0248H55.0227ZM81.0727 66.3299C80.7679 67.3108 80.3059 68.2033 79.753 69.0647L72.744 79.9829C72.3966 80.5246 71.8277 80.8353 71.1834 80.8353C70.5392 80.8353 69.9703 80.5247 69.6225 79.9825L62.6137 69.0647C61.4633 67.2609 60.7988 65.2509 60.8288 63.0994C60.9048 57.599 65.528 52.9687 71.0355 52.8917C76.7375 52.8056 81.5391 57.5483 81.5391 63.2474C81.5391 64.2997 81.3823 65.3365 81.0727 66.3299Z" fill="#4D4D4D"/>
<path d="M71.1843 56.9497C67.7193 56.9497 64.9004 59.7687 64.9004 63.2337C64.9004 66.6987 67.7193 69.5177 71.1843 69.5177C74.6493 69.5177 77.4683 66.6987 77.4683 63.2337C77.4683 59.7687 74.6493 56.9497 71.1843 56.9497ZM71.1843 67.0568C69.0762 67.0568 67.3613 65.3418 67.3613 63.2337C67.3613 61.1257 69.0764 59.4106 71.1843 59.4106C73.2922 59.4106 75.0073 61.1257 75.0073 63.2337C75.0073 65.3418 73.2923 67.0568 71.1843 67.0568Z" fill="#4D4D4D"/>
<path d="M49.4046 37.3213C46.6174 37.3213 44.3496 39.589 44.3496 42.3763C44.3496 45.1637 46.6174 47.4314 49.4046 47.4314C52.192 47.4314 54.4598 45.1637 54.4598 42.3763C54.4598 39.589 52.192 37.3213 49.4046 37.3213ZM49.4046 44.9705C47.9742 44.9705 46.8105 43.8067 46.8105 42.3763C46.8105 40.9459 47.9742 39.7822 49.4046 39.7822C50.835 39.7822 51.9988 40.9459 51.9988 42.3763C51.9988 43.8067 50.835 44.9705 49.4046 44.9705Z" fill="#4D4D4D"/>
<path d="M62.0831 31.2723C62.3409 31.8917 63.0681 32.1925 63.6889 31.938C64.3089 31.6836 64.6109 30.9484 64.3546 30.331C64.0975 29.7117 63.3678 29.4084 62.7476 29.6653C62.1263 29.9226 61.8288 30.6525 62.0831 31.2723Z" fill="#4D4D4D"/>
</g>
</g>
</g>
<defs>
<clipPath id="clip0_38_19">
<rect width="105" height="105" fill="white"/>
</clipPath>
<clipPath id="clip1_38_19">
<rect width="63" height="63" fill="white" transform="translate(21 21)"/>
</clipPath>
</defs>
</svg>
