<svg width="105" height="106" viewBox="0 0 105 106" fill="none" xmlns="http://www.w3.org/2000/svg">
<g clip-path="url(#clip0_73_66)">
<path d="M52.5 106C81.4949 106 105 82.4949 105 53.5C105 24.5051 81.4949 1 52.5 1C23.5051 1 0 24.5051 0 53.5C0 82.4949 23.5051 106 52.5 106Z" fill="#F9F9F9"/>
<mask id="mask0_73_66" style="mask-type:luminance" maskUnits="userSpaceOnUse" x="21" y="22" width="63" height="63">
<path d="M84 22H21V85H84V22Z" fill="white"/>
</mask>
<g mask="url(#mask0_73_66)">
<path d="M71.0188 52.6613C64.7779 52.7487 59.6849 57.8416 59.5988 64.0825C59.5644 66.5471 60.299 68.837 61.5786 70.7295L68.5874 81.6474C69.8006 83.5387 72.5667 83.5387 73.78 81.6474L80.7887 70.7295C82.0768 68.8228 82.7698 66.5481 82.7698 64.2474C82.7698 57.7936 77.4935 52.5715 71.0188 52.6613ZM71.1837 69.2874C68.3917 69.2874 66.1301 67.0258 66.1301 64.2339C66.1301 61.4432 68.3917 59.1803 71.1837 59.1803C73.9744 59.1803 76.2372 61.4432 76.2372 64.2339C76.2372 67.0258 73.9744 69.2874 71.1837 69.2874Z" fill="#949090"/>
<path d="M71.1843 43.4264V52.6475C71.1289 52.6475 71.0736 52.6475 71.0182 52.6487C64.7785 52.7349 59.6856 57.829 59.5982 64.07C59.5724 65.9292 59.9846 67.69 60.7389 69.2552H27.627V43.3761L49.405 30.9224L71.1843 43.4264Z" fill="white"/>
<path d="M45.0176 54.6064H53.7927V69.2557H45.0176V54.6064Z" fill="#ECE8E8"/>
<path d="M76.5788 39.4097V46.5238L49.4054 30.9233L22.2305 46.5238V39.4097L49.4054 23.9346L76.5788 39.4097Z" fill="#949090"/>
<path d="M31.9707 33.8631V23.9346H38.331V30.2411L31.9707 33.8631Z" fill="#949090"/>
<path d="M49.8245 47.6491C51.9368 47.6491 53.6491 45.9368 53.6491 43.8245C53.6491 41.7123 51.9368 40 49.8245 40C47.7123 40 46 41.7123 46 43.8245C46 45.9368 47.7123 47.6491 49.8245 47.6491Z" fill="#ECE8E8"/>
<path d="M80.1822 55.1206C78.0593 53.0269 75.3395 51.7654 72.4139 51.4886V45.5516L75.9663 47.5911C76.77 48.0527 77.8094 47.4513 77.8094 46.524V39.4099C77.8094 38.9677 77.572 38.5596 77.1878 38.3408L68.4023 33.3374C67.812 33.0013 67.0604 33.2071 66.7241 33.7978C66.3878 34.3883 66.5938 35.1395 67.1843 35.4759L75.3485 40.1253V44.3987L50.0168 29.8556C49.6379 29.638 49.1724 29.6377 48.7933 29.8545L23.4609 44.3987V40.1252L49.4055 25.3506L57.7994 30.131C58.3901 30.4673 59.1413 30.2614 59.4776 29.6706C59.8139 29.0801 59.6079 28.3289 59.0174 27.9925L50.0145 22.8654C49.6371 22.6503 49.174 22.6503 48.7967 22.8654L39.5614 28.1246V23.9346C39.5614 23.2551 39.0104 22.7041 38.3309 22.7041H31.9706C31.2911 22.7041 30.7401 23.2551 30.7401 23.9346V33.1478L21.6216 38.3407C21.2374 38.5594 21 38.9676 21 39.4098V46.5239C21 46.9629 21.2339 47.3687 21.6139 47.5887C21.9938 47.8089 22.4624 47.8095 22.843 47.5911L26.3955 45.5517V69.2553C26.3955 69.9348 26.9465 70.4858 27.626 70.4858H59.986C60.161 70.7989 60.3483 71.1064 60.5506 71.4062L67.5515 82.3117C68.3487 83.5543 69.7064 84.2962 71.1836 84.2962C72.6606 84.2962 74.0183 83.5543 74.8153 82.3121L81.8165 71.4058C83.2359 69.2991 84 66.7874 84 64.2474C84 60.7898 82.6441 57.5485 80.1822 55.1206ZM33.2011 25.165H37.1003V29.5258L33.2011 31.7464V25.165ZM52.5618 68.0248H46.2477V55.8369H52.5618V68.0248ZM55.0227 68.0248V54.6065C55.0227 53.927 54.4717 53.376 53.7922 53.376H45.0173C44.3378 53.376 43.7868 53.927 43.7868 54.6065V68.0248H28.8565V44.139L49.4055 32.3422L69.953 44.1391V51.4757C67.006 51.7574 64.2597 53.0516 62.1301 55.1815C59.7503 57.5618 58.4139 60.7123 58.367 64.0531C58.3483 65.3955 58.5385 66.7417 58.9335 68.0248H55.0227ZM81.0727 67.3299C80.7679 68.3108 80.3059 69.2033 79.753 70.0647L72.744 80.9829C72.3966 81.5246 71.8277 81.8353 71.1834 81.8353C70.5392 81.8353 69.9703 81.5247 69.6225 80.9825L62.6137 70.0647C61.4633 68.2609 60.7988 66.2509 60.8288 64.0994C60.9048 58.599 65.528 53.9687 71.0355 53.8917C76.7375 53.8056 81.5391 58.5483 81.5391 64.2474C81.5391 65.2997 81.3823 66.3365 81.0727 67.3299Z" fill="#4D4D4D"/>
<path d="M71.1843 57.9497C67.7193 57.9497 64.9004 60.7687 64.9004 64.2337C64.9004 67.6987 67.7193 70.5177 71.1843 70.5177C74.6493 70.5177 77.4683 67.6987 77.4683 64.2337C77.4683 60.7687 74.6493 57.9497 71.1843 57.9497ZM71.1843 68.0568C69.0762 68.0568 67.3613 66.3418 67.3613 64.2337C67.3613 62.1257 69.0764 60.4106 71.1843 60.4106C73.2922 60.4106 75.0073 62.1257 75.0073 64.2337C75.0073 66.3418 73.2923 68.0568 71.1843 68.0568Z" fill="#4D4D4D"/>
<path d="M49.4046 38.3213C46.6174 38.3213 44.3496 40.589 44.3496 43.3763C44.3496 46.1637 46.6174 48.4314 49.4046 48.4314C52.192 48.4314 54.4598 46.1637 54.4598 43.3763C54.4598 40.589 52.192 38.3213 49.4046 38.3213ZM49.4046 45.9705C47.9742 45.9705 46.8105 44.8067 46.8105 43.3763C46.8105 41.9459 47.9742 40.7822 49.4046 40.7822C50.835 40.7822 51.9988 41.9459 51.9988 43.3763C51.9988 44.8067 50.835 45.9705 49.4046 45.9705Z" fill="#4D4D4D"/>
<path d="M62.0831 32.2723C62.3409 32.8917 63.0681 33.1925 63.6889 32.938C64.3089 32.6836 64.6109 31.9484 64.3546 31.331C64.0975 30.7117 63.3678 30.4084 62.7476 30.6653C62.1263 30.9226 61.8288 31.6525 62.0831 32.2723Z" fill="#4D4D4D"/>
</g>
</g>
<defs>
<clipPath id="clip0_73_66">
<rect width="105" height="105" fill="white" transform="translate(0 0.5)"/>
</clipPath>
</defs>
</svg>
