<svg width="292" height="54" viewBox="0 0 292 54" fill="none" xmlns="http://www.w3.org/2000/svg">
<g clip-path="url(#clip0_1_2269)">
<path d="M27.1542 6.28561V0C19.9525 0 13.0457 2.84463 7.95329 7.90811C2.86088 12.9716 0 19.8392 0 27C0 34.1608 2.86088 41.0284 7.95329 46.0919C13.0457 51.1554 19.9525 54 27.1542 54V47.7144C22.1714 47.7164 17.3522 45.9462 13.5674 42.7236C9.78255 39.501 7.28181 35.0386 6.51702 30.1428H21.05V23.8572H6.56046C7.32411 18.9687 9.81854 14.5121 13.5943 11.2904C17.3701 8.06879 22.1789 6.29391 27.1542 6.28561Z" fill="#001F3F"/>
<path d="M45.7258 17.5716H52.6339C50.6981 12.4067 47.219 7.95457 42.6638 4.81342C38.1086 1.67227 32.6957 -0.00742437 27.1523 2.46691e-05V6.28563C30.9935 6.28248 34.7609 7.33478 38.0385 9.32638C41.316 11.318 43.9764 14.1714 45.7258 17.5716Z" fill="#FFB802"/>
<path d="M54.1224 23.8572H33.0942V30.1428H47.7466C46.9839 35.0396 44.4838 39.5032 40.6985 42.7262C36.9132 45.9491 32.0928 47.7186 27.1094 47.7144V54C34.3111 54 41.2179 51.1554 46.3103 46.0919C51.4027 41.0284 54.2636 34.1608 54.2636 27C54.2767 25.9506 54.2296 24.9013 54.1224 23.8572Z" fill="#FFB802"/>
<path d="M80.0849 14.2235V21.2003H89.6758V25.3259H80.0849V32.5727H90.8271V36.8927H74.6758V9.95752H90.8271V14.2235H80.0849Z" fill="#001F3F"/>
<path d="M113.332 17.8524C114.892 19.7467 115.668 22.1598 115.505 24.6024V36.882H110.128V25.2072C110.216 23.7857 109.749 22.3853 108.825 21.2976C108.365 20.8261 107.809 20.4578 107.195 20.2175C106.58 19.9772 105.921 19.8704 105.262 19.9044C104.576 19.8748 103.893 19.9926 103.257 20.2498C102.622 20.507 102.05 20.8976 101.58 21.3948C100.59 22.5898 100.096 24.1159 100.2 25.6608V36.882H94.7695V15.7464H100.2V19.98C100.731 18.5927 101.709 17.4192 102.981 16.6428C104.324 15.8296 105.873 15.4138 107.445 15.444C108.544 15.3912 109.641 15.5796 110.659 15.9958C111.676 16.412 112.589 17.0459 113.332 17.8524Z" fill="#001F3F"/>
<path d="M140.072 27.3456H124.496C124.439 28.8777 124.989 30.371 126.028 31.5036C126.983 32.3913 128.251 32.8686 129.558 32.832C130.672 32.8719 131.769 32.5538 132.686 31.9248C133.508 31.3222 134.073 30.4364 134.272 29.4408H139.996C139.724 30.8869 139.106 32.2465 138.193 33.4044C137.251 34.5924 136.032 35.534 134.641 36.1476C133 36.854 131.222 37.1913 129.435 37.1352C127.647 37.0792 125.894 36.6313 124.301 35.8236C122.71 34.9617 121.405 33.66 120.543 32.076C119.664 30.2771 119.207 28.3033 119.207 26.3034C119.207 24.3034 119.664 22.3296 120.543 20.5308C121.398 18.9418 122.705 17.6384 124.301 16.7832C126.006 15.8975 127.907 15.4519 129.83 15.4872C131.743 15.4427 133.636 15.889 135.326 16.7832C136.856 17.6042 138.122 18.84 138.975 20.3472C139.849 21.9268 140.291 23.7069 140.257 25.5096C140.247 26.1256 140.185 26.7398 140.072 27.3456ZM133.447 21.0492C132.458 20.1592 131.162 19.6832 129.83 19.7208C128.477 19.6831 127.161 20.158 126.147 21.0492C125.622 21.5611 125.204 22.1729 124.921 22.8482C124.637 23.5235 124.493 24.2486 124.496 24.9804H134.793C134.883 24.2665 134.808 23.5417 134.575 22.8607C134.341 22.1797 133.956 21.5603 133.447 21.0492Z" fill="#001F3F"/>
<path d="M152.65 16.6104C153.963 15.8322 155.466 15.4286 156.995 15.444V21.2004H155.431C151.477 21.2004 149.489 23.0364 149.489 26.6976V36.882H144.059V15.7464H149.489V19.7964C150.251 18.4829 151.34 17.3859 152.65 16.6104Z" fill="#001F3F"/>
<path d="M172.94 16.74C174.188 17.5511 175.14 18.7401 175.655 20.1312V15.7464H181.032V36.9576C181.06 38.7849 180.658 40.5934 179.859 42.2388C179.09 43.7807 177.876 45.0594 176.372 45.9108C174.65 46.8477 172.708 47.3101 170.746 47.25C168.092 47.3779 165.473 46.6174 163.305 45.09C161.417 43.645 160.176 41.519 159.851 39.1716H165.206C165.483 40.1932 166.118 41.0823 166.998 41.6772C168.011 42.3101 169.192 42.6227 170.387 42.5736C171.087 42.6055 171.787 42.4987 172.445 42.2596C173.103 42.0204 173.707 41.6536 174.221 41.1804C174.743 40.6159 175.141 39.9504 175.392 39.2256C175.642 38.5007 175.739 37.7323 175.677 36.9684V32.4648C175.162 33.8619 174.21 35.0581 172.961 35.8776C171.591 36.7551 169.985 37.1994 168.356 37.152C166.655 37.1759 164.981 36.7271 163.523 35.856C162.057 34.9576 160.89 33.6506 160.166 32.0976C159.371 30.2739 158.961 28.3073 158.961 26.3196C158.961 24.3319 159.371 22.3653 160.166 20.5416C160.894 18.9936 162.06 17.691 163.523 16.794C164.981 15.9229 166.655 15.474 168.356 15.498C169.974 15.45 171.57 15.8824 172.94 16.74ZM165.956 21.816C164.88 23.0601 164.331 24.6705 164.424 26.3088C164.327 27.9443 164.876 29.5529 165.956 30.7908C167.042 31.8404 168.498 32.4276 170.012 32.4276C171.527 32.4276 172.983 31.8404 174.069 30.7908C175.096 29.5282 175.656 27.9538 175.656 26.3304C175.656 24.7069 175.096 23.1326 174.069 21.87C172.988 20.8101 171.531 20.2159 170.012 20.2159C168.494 20.2159 167.037 20.8101 165.956 21.87V21.816Z" fill="#001F3F"/>
<path d="M189.582 15.7463L195.371 30.0887L200.802 15.7463H206.743L193.709 46.9475H187.724L192.514 36.2663L183.586 15.7463H189.582Z" fill="#001F3F"/>
<path d="M230.327 12.1069C232.487 13.6986 233.977 16.0306 234.509 18.6517H228.828C228.304 17.4388 227.411 16.4192 226.275 15.7357C225.037 14.9876 223.607 14.6125 222.159 14.6557C220.706 14.6296 219.273 15.0034 218.02 15.7357C216.807 16.4569 215.833 17.5157 215.218 18.7813C214.52 20.2328 214.178 21.8279 214.219 23.4361C214.072 25.849 214.893 28.2214 216.5 30.0349C217.315 30.8406 218.291 31.4673 219.365 31.8747C220.439 32.2821 221.587 32.4611 222.734 32.4001C224.557 32.443 226.334 31.8336 227.742 30.6829C229.178 29.4604 230.135 27.7743 230.446 25.9201H221.29V22.0645H234.976V27.2485C234.594 29.0307 233.831 30.7103 232.738 32.1733C231.597 33.6978 230.108 34.9306 228.393 35.7697C226.467 36.7048 224.345 37.1712 222.202 37.1305C219.743 37.1793 217.314 36.5793 215.164 35.3917C213.156 34.2649 211.519 32.5846 210.45 30.5533C209.35 28.3422 208.777 25.9085 208.777 23.4415C208.777 20.9746 209.35 18.5409 210.45 16.3297C211.519 14.2976 213.146 12.6087 215.142 11.4589C217.281 10.2615 219.705 9.65729 222.159 9.70933C225.071 9.60195 227.94 10.4439 230.327 12.1069Z" fill="#001F3F"/>
<path d="M239.344 7.56006C240.013 6.98986 240.876 6.69612 241.756 6.73927C242.638 6.69773 243.504 6.9911 244.178 7.56006C244.481 7.83031 244.721 8.16432 244.879 8.53791C245.036 8.91149 245.109 9.31529 245.09 9.72006C245.101 10.1112 245.025 10.4998 244.867 10.8583C244.709 11.2168 244.474 11.5362 244.178 11.7937C243.504 12.3626 242.638 12.656 241.756 12.6145C240.876 12.6576 240.013 12.3639 239.344 11.7937C239.044 11.5387 238.806 11.22 238.646 10.8611C238.486 10.5023 238.409 10.1123 238.421 9.72006C238.402 9.31415 238.474 8.9091 238.634 8.5351C238.794 8.16111 239.037 7.82781 239.344 7.56006ZM244.438 15.7357V36.8713H239.008V15.7465L244.438 15.7357Z" fill="#001F3F"/>
<path d="M262.27 16.7399C263.524 17.5475 264.48 18.7373 264.996 20.1311V15.7463H270.362V36.9575C270.388 38.7833 269.99 40.5905 269.2 42.2386C268.432 43.7844 267.213 45.0641 265.702 45.9107C263.984 46.8477 262.045 47.3101 260.087 47.2499C257.434 47.3778 254.814 46.6173 252.647 45.0899C250.758 43.6449 249.517 41.5188 249.193 39.1715H254.526C254.798 40.1919 255.43 41.081 256.307 41.6771C257.324 42.3096 258.509 42.622 259.707 42.5735C260.407 42.6042 261.106 42.4969 261.764 42.2578C262.422 42.0187 263.026 41.6525 263.541 41.1803C264.06 40.6143 264.457 39.9486 264.707 39.2242C264.958 38.4997 265.056 37.732 264.996 36.9683V32.4647C264.481 33.8648 263.525 35.062 262.27 35.8775C260.904 36.7547 259.301 37.1991 257.676 37.1519C255.974 37.1776 254.3 36.7286 252.842 35.8559C251.377 34.9575 250.21 33.6504 249.486 32.0975C248.684 30.2756 248.27 28.3083 248.27 26.3195C248.27 24.3306 248.684 22.3633 249.486 20.5415C250.213 18.9935 251.38 17.6909 252.842 16.7939C254.3 15.9212 255.974 15.4722 257.676 15.4979C259.298 15.4457 260.898 15.8783 262.27 16.7399ZM255.297 21.8159C254.213 23.056 253.659 24.6683 253.755 26.3087C253.655 27.9463 254.209 29.5568 255.297 30.7907C256.382 31.8396 257.835 32.4265 259.348 32.4265C260.861 32.4265 262.315 31.8396 263.4 30.7907C264.432 29.5306 264.995 27.9553 264.995 26.3303C264.995 24.7052 264.432 23.1299 263.4 21.8699C262.32 20.8106 260.865 20.2167 259.348 20.2167C257.832 20.2167 256.376 20.8106 255.297 21.8699V21.8159Z" fill="#001F3F"/>
<path d="M288.819 17.4313C290.39 18.7508 291.424 20.5933 291.73 22.6153H286.668C286.504 21.6682 286.017 20.8062 285.289 20.1745C284.5 19.5356 283.502 19.2087 282.486 19.2565C281.708 19.2069 280.937 19.4368 280.314 19.9045C280.06 20.12 279.859 20.391 279.727 20.6963C279.595 21.0016 279.536 21.3331 279.554 21.6649C279.545 21.929 279.595 22.1919 279.7 22.4346C279.805 22.6773 279.963 22.8939 280.162 23.0689C280.615 23.4484 281.139 23.7348 281.704 23.9113C282.313 24.1165 283.192 24.3541 284.344 24.6349C285.679 24.8999 286.993 25.2608 288.276 25.7149C289.288 26.1116 290.184 26.7539 290.883 27.5833C291.652 28.5676 292.037 29.7948 291.969 31.0393C291.985 31.8896 291.796 32.7313 291.418 33.4942C291.041 34.2571 290.484 34.9188 289.796 35.4241C288.134 36.6182 286.109 37.2092 284.061 37.0981C281.706 37.2151 279.377 36.5669 277.425 35.2513C276.588 34.619 275.889 33.8253 275.368 32.9179C274.848 32.0104 274.516 31.0078 274.395 29.9701H279.576C279.621 30.4532 279.767 30.9216 280.005 31.3455C280.242 31.7694 280.566 32.1396 280.955 32.4325C281.863 33.064 282.955 33.3792 284.061 33.3289C284.824 33.3799 285.577 33.1405 286.169 32.6593C286.409 32.4391 286.599 32.1696 286.725 31.8694C286.85 31.5692 286.909 31.2454 286.896 30.9205C286.907 30.643 286.856 30.3666 286.747 30.1108C286.638 29.8551 286.474 29.6264 286.266 29.4409C285.812 29.0355 285.275 28.7333 284.691 28.5553C284.072 28.3609 283.182 28.1125 282.03 27.8317C280.723 27.5556 279.435 27.1948 278.174 26.7517C277.19 26.3851 276.318 25.7711 275.644 24.9697C274.88 24.0242 274.494 22.8325 274.557 21.6217C274.535 20.7663 274.713 19.9175 275.079 19.143C275.445 18.3685 275.988 17.6899 276.665 17.1613C278.347 15.9285 280.411 15.3209 282.497 15.4441C284.777 15.3207 287.025 16.0271 288.819 17.4313Z" fill="#001F3F"/>
</g>
<defs>
<clipPath id="clip0_1_2269">
<rect width="292" height="54" fill="white"/>
</clipPath>
</defs>
</svg>
